<svg id="Layer_1" xmlns="http://www.w3.org/2000/svg" viewBox="0 0 255 93.5">
  <style>
    .st0{fill:#c41230}
  </style>
  <path class="st0" d="M78.5 47c0 17.7-14.4 32.1-32.1 32.1-17.7 0-32.1-14.4-32.1-32.1 0-17.7 14.4-32.1 32.1-32.1 17.8 0 32.1 14.3 32.1 32.1M46.4 3.6C70.3 3.6 89.8 23 89.8 47c0 23.9-19.4 43.4-43.3 43.4-24 0-43.4-19.5-43.4-43.4 0-24 19.4-43.4 43.3-43.4zm0 85.3c23.1 0 41.8-18.8 41.8-41.9 0-23.1-18.8-41.9-41.8-41.9S4.6 23.9 4.6 47c0 23.1 18.8 41.9 41.8 41.9zm-38.2-49l2.1.5c.3.1.5.1.8.1.2 0 .5-.1.7-.2.2-.1.4-.3.6-.5.2-.2.3-.6.4-1 .1-.4.1-.7.1-1 0-.3-.1-.5-.2-.8-.1-.2-.3-.4-.5-.5-.2-.1-.5-.2-.7-.3l-2.1-.5c-.1 0-.1-.1-.1-.1v-.2h-.1L8.7 37h.1s0-.1.1-.1h.2l2.4.6c.2.1.4.2.5.4.1.2.1.4 0 .7-.1.3-.2.5-.3.6-.2.1-.4.2-.6.1l-2.4-.6c-.1 0-.1 0-.1-.1v-.1h-.1l-.3 1.6h.1c-.3-.1-.3-.1-.2-.2h.1zm7.2-9.1l-3.6-1.6c-.1 0-.1-.1-.1-.1v-.2h-.1l-.6 1.4h.1c0-.1.1-.1.1-.2h.2l1.9.8-.9.3c-.3.1-.6.2-.8.2-.2.1-.4.1-.6.2-.2 0-.2.1-.3.1-.1 0-.1-.1-.1-.1v-.1l-.1-.1-.8 2.1h.1c0-.1.1-.1.1-.1h.2l3.6 1.6c.1 0 .1.1.1.1v.2l.1.1.6-1.5-.1-.1c0 .1-.1.1-.1.1h-.2l-2.4-1.1 1.2-.3c.4-.1.7-.2 1.1-.3.3-.1.6-.2.8-.2.2-.1.3-.1.4 0-.2-.1-.2 0-.2 0 0 .1 0 .1-.1.2h.1l.8-1.5h-.1c0 .1-.1.1-.1.2 0-.1-.1-.1-.2-.1zm-1.2-6.1c.1.1.1 0 .1 0h.1s.1 0 .3.1c.2.1 3.1 1.1 3.3 1.2.2.1.3.1.3.1l.1.1c0 .1 0 .1-.1.1l.1.1 1.2-1.5-.1-.1-.1.1h-.1s-.1-.1-.2-.3c-.1-.2-2-3.2-2-3.3v-.1-.2l-1 1.2.1.1s0-.1.1-.1h.1s.1.1.2.3c.1.2 1.1 1.9 1.3 2.1 0 0-2.3-.8-2.4-.9-.1 0-.2-.1-.2-.1v-.1c0-.1.1-.1.1-.1l-.1-.1-1.1 1.4zm9.2-4.9l-1.9 1.8-.7-.7 1.3-1.2h.1s.1 0 .2.1l.1-.1-.9-1-.1.1c.1.1.1.1.1.2 0 0 0 .1-.1.1l-1.3 1.2-.6-.6 2-1.9h.1s.1 0 .2.1l.1-.1-.9-1H21c.1.1.1.1.1.2 0 0 0 .1-.1.1L18 20l.1.1c.1 0 .1-.1.2-.1s.1 0 .2.1l2.6 2.8c0 .1.1.1 0 .2 0 .1-.1.1-.1.2l.1.1 3-2.9.1-.1s.1 0 .2.1l.1-.1-.9-1-.1.1c0 .1 0 .2-.1.3zm-.3-3.9l2.2 3.2v.2s0 .1-.1.1l.1.1 1.3-.9-.1-.1c-.1 0-.1.1-.2.1s-.1 0-.1-.1l-.8-1.2.7-.5s1 .6 1.2.6c.1.1.2.1.2.2v.1l-.1.1.1.1 1.6-1-.1-.1c-.1 0-.1.1-.2.1h-.2l-1.6-.7c.2-.3.3-.5.3-.8 0-.3 0-.6-.2-.9-.3-.4-.6-.6-.9-.7-.4 0-.7.1-1.1.3l-2.4 1.7.1.1h.1c.1-.1.1-.1.2 0zm1.9.7l-.6-.9 1-.7c.2-.2.4-.2.6-.2.1 0 .2.1.3.2.1.2.1.3.1.4 0 .1-.1.3-.3.4l-1.1.8zm4.6-1.8l.2 1.4h.1v-.1s0-.1.1-.1h.2c.1 0 .3 0 .5-.1.2 0 .4-.1.6-.2.2-.1.4-.1.6-.2.3-.1.6-.3.8-.5.2-.2.4-.4.4-.5.1-.2.1-.4.1-.6 0-.2 0-.4-.1-.6-.1-.3-.3-.5-.5-.5-.2-.1-.4-.1-.7-.1-.2 0-.5.1-.7.1-.2.1-.5.1-.7.2-.2.1-.4.1-.6.1-.2 0-.3 0-.3-.1v-.3c.1-.1.1-.2.2-.3.1-.1.2-.1.3-.2.1-.1.2-.1.2-.1.1-.1.3-.1.4-.2.1 0 .3-.1.4-.1h.5v.2h.1v-1.4h-.1v.1s0 .1-.1.1-.1 0-.2.1c-.1 0-.3.1-.4.1-.2 0-.3.1-.5.1-.2.1-.4.1-.6.2-.3.2-.6.3-.8.5-.2.2-.3.4-.4.6-.1.2-.1.4-.1.6 0 .2 0 .4.1.5.1.3.3.4.5.5.2.1.4.1.7.1.2 0 .5-.1.7-.1.3-.1.5-.1.7-.2.2-.1.4-.1.6-.1.2 0 .3 0 .3.2v.3c0 .1-.1.2-.2.2l-.2.2c-.1 0-.2.1-.2.1-.2.1-.4.1-.6.2-.2.1-.4.1-.6.1h-.5c-.1 0-.2 0-.2-.1v-.1zm11-6.6l-3.8.8h-.1s-.1-.1-.1-.2h-.1l.3 1.5h.1v-.2l.1-.1 1.3-.3.6 3.1v.2l-.1.1v.1l1.6-.3v-.1h-.1c-.1 0-.1-.1-.1-.1l-.6-3.1 1.3-.3h.1s.1.1.1.2h.1L40.9 8h-.1v.2c-.1-.1-.1 0-.2 0zm4.7 3.8l-.1-1.4L46.7 8l.1-.1h.1v-.1h-1.8v.1h.1s.1 0 .1.1c0 0 0 .1-.1.3-.1.1-.6 1.1-.6 1.2-.1-.1-.8-1-.9-1.1-.1-.1-.1-.2-.1-.2 0-.1 0-.1.1-.1h.1V8l-2 .2v.1h.1c.1 0 .1 0 .1.1l1.9 2.5.1 1.3c0 .1 0 .1-.1.1h-.1v.1l1.6-.1v-.1h-.1V12zm8.4-3.6c-.3 0-.6-.1-.9 0-.3 0-.6.1-.9.3-.3.1-.5.3-.7.6-.2.3-.3.6-.4 1-.1.4-.1.8 0 1.1.1.3.2.6.4.8.2.2.4.4.7.5.3.1.6.2.8.3.3.1.6.1.9 0 .3 0 .6-.1.9-.2.3-.1.5-.3.7-.6.2-.3.3-.6.4-1 .1-.4.1-.8 0-1.1-.1-.3-.2-.6-.4-.8-.2-.2-.4-.4-.7-.6-.2-.1-.5-.2-.8-.3zm-.2 1.1c.2 0 .3.1.5.2.1.1.3.2.4.3.1.1.2.3.2.4v.5c0 .2-.1.3-.2.5l-.3.3c-.1.1-.3.1-.4.2h-.5c-.2 0-.3-.1-.5-.2-.1-.1-.3-.2-.4-.3-.1-.1-.2-.3-.2-.4v-.5c0-.2.1-.4.2-.5l.3-.3c.1-.1.3-.1.4-.2.2-.1.4-.1.5 0zm4 .2l-1.3 3.7c0 .1-.1.1-.1.1h-.2v.1l1.7.5V14c-.1 0-.1-.1-.2-.1 0 0-.1-.1 0-.2l.5-1.3 1.6.6s.1 0 .1.1v.2h.1l.4-1.3H60c0 .1-.1.1-.1.2h-.1l-1.6-.6.3-.9 2.4.8s.1 0 .1.1v.2h.1l.5-1.3h-.1c0 .1-.1.1-.1.2h-.1l-3.8-1.3v.1c.1 0 .1.1.2.1-.2 0-.2 0-.2.1zm7.5 5.8l1.7 1.1-.8 1.3c0 .1-.1.1-.1.1-.1 0-.1 0-.2-.1l-.1.1 1.4 1 .1-.1c-.1 0-.1-.1-.1-.1v-.2l2.1-3.3c0-.1.1-.1.1-.1s.1 0 .2.1l.1-.1-1.5-1-.1.1c.1 0 .1.1.1.1v.2l-.7 1.1-1.7-1.1.7-1.1c0-.1.1-.1.1-.1.1 0 .1 0 .2.1l.1-.1-1.5-.9-.1.1c.1 0 .1.1.1.1v.2L63 16.2c0 .1-.1.1-.1.1-.1 0-.1 0-.2-.1l-.1.1 1.5.9.1-.1c-.1 0-.1-.1-.1-.1v-.2l.9-1.3zm5.6 6.6l1.1 1.1.1-.1-.1-.1v-.1c.1-.2 1.3-3.9 1.3-4 .1-.2.1-.3.1-.3h.2l.1-.1-1.4-1.3-.1.1c.1.1.1.1 0 .2 0 0-.1.1-.4.2-.2.1-3.1 1.6-3.6 1.8h-.1s-.1 0-.1-.1l-.1.1 1.1.9.1-.1v-.1-.1s.1 0 .1-.1c.1 0 .5-.2.6-.3l1.6 1.4c0 .1-.2.6-.2.6 0 .1 0 .1-.1.1h-.1c0 .2 0 .2-.1.3zm.7-1.6l-1.2-1 1.8-.8-.6 1.8zm6.6 11.9l.6 1.4.1-.1v-.1-.1c.1-.1 2.6-3.2 2.7-3.3l.2-.2c.1 0 .1 0 .2.1l.1-.1-.9-1.7-.1.1v.2s-.2 0-.4.1c-.3 0-3.5.3-4 .4h-.1l-.1-.1H76l.7 1.2.1-.1V30s0-.1.1-.1h.1c.1 0 .6 0 .6-.1l1 1.9-.4.5-.1.1H78v-.1l-.1.2zm1.2-1.2l-.7-1.4 1.9-.2-1.2 1.6zm-2.7-9.4l-1.1-1.2-.1.1v.2s-2.4 3.2-2.4 3.3c-.1 0-.2 0-.3-.1l-.1.1 1.2 1.5.1-.1c0-.1-.1-.1-.1-.2v-.1s.1-.1.2-.1 1.9-.6 2-.7c.1 0 .2-.1.3-.1l-.2.2c-.1.1-1.1 1.6-1.2 1.7-.1.1-.1.2-.2.2s-.2 0-.3-.1l-.1.1 1.1 1.6.1-.1c-.1-.2 0-.3 0-.3s3.5-1.4 3.6-1.4c.1 0 .1 0 .2-.1.1 0 .1 0 .2.1l.1-.1-.6-1.2h-.1c0 .1.1.1.1.2s0 .1-.1.2c0 0-2.4 1-2.5 1 0 0 1.3-2 1.4-2.1.1-.1.1-.2.1-.2.1 0 .1-.1.2 0 .1 0 .1.1.1.1l.1-.1-1.1-1.5v.1s.1.1.1.2 0 .1-.1.2c0 0-.1.1-.2.1s-2.3.8-2.4.8c0-.1 1.6-2.1 1.6-2.1.1 0 .1-.1.2 0 0-.2.1-.1.2-.1zm7.2 12.9L83 33h-.1v.2c0 .1 0 .1-.1.1l-3.7 1.3h-.2s-.1-.1-.1-.2h-.1l.6 1.7h.1v-.2c0-.1 0-.1.1-.1l3.7-1.3h.2s.1.1.1.2h.1zM35.2 9.4l-1.8.6v.1h.2s.1 0 .1.1l1.2 3.7v.2s-.1.1-.2.1v.1l1.8-.6v-.1h-.2c-.1 0-.1 0-.1-.1L35 9.8v-.2s.1-.1.2-.1v-.1zM13.5 25.8l-1 1.6.1.1c0-.1.1-.1.1-.2h.2l3.3 2c.1 0 .1.1.1.1 0 .1 0 .1-.1.2l.1.1 1-1.6V28l-.2.2h-.2l-3.3-2c-.1 0-.1-.1-.1-.1 0-.1 0-.1.1-.2l-.1-.1zM85 40l-.4-1.8h-.1v.2c0 .1-.1.1-.1.1l-3.8.8h-.2s-.1-.1-.1-.2h-.1l.4 1.8h.1v-.2c0-.1 0-.1.1-.1l3.8-.8h.2s.1.1.1.2h.1zm-.1-2.9l.3-.1c-.1-.1-.2-.3-.4-.4-.1-.1-.3-.3-.5-.3-.2-.1-.3-.2-.5-.2h-.6c-.2.1-.4.2-.6.4-.1.2-.2.4-.1.6.1.2.2.3.3.4.2.1.3.1.6.1.3-.1.4-.2.5-.4.1-.2.1-.4 0-.6.2 0 .4 0 .6.1.1.1.3.2.4.4zM54.8 80.4L56 80m-1.2.2l.1.5 1.2-.4-.1-.5-1.2.4zm19.7-6.6l.9-.9-.1-.1h-.1-.1L73 72c0-.1-.1-.8-.1-1v-.5c0-.1 0-.2.1-.3l-.1-.1-.9 1 .1.1s.1 0 .1-.1h.1v.4c0 .1.1 1.4.1 1.5l-1-1s-.1-.1 0-.1c0 0 0-.1.1-.1l-.1-.1-.8.8.1.1.1-.1h.1l2.2 2.1s.1.1 0 .1v.1l-.1.2.9-.8-.1-.1-.1.1h-.1l-.5-.4-.1-.9s1.2.4 1.3.4h.1s.1.1 0 .1c.1 0 0 .1.1.2zM57.3 84.1l1-.3v-.1h-.1-.1c-.1-.1-1.7-2.4-1.8-2.5-.1-.1-.1-.2-.1-.2s0-.1.1-.1v-.1l-1.3.3v.1c.1 0 .1 0 .1.1v.3c0 .2-.2 2.5-.2 2.9v.1h-.1v.1l.9-.2v-.1-.1-.1-.5l1.4-.4s.2.3.3.4v.2c-.1.1-.1.1-.1.2zm-.6-1.1l-1 .3.1-1.5.9 1.2zm10.2-3.2l.9-.6v-.1h-.1-.1c-.1-.1-2.3-1.8-2.4-1.9-.2 0-.2-.1-.2-.1v-.2l-1.1.7v.1h.1s0 .1.1.3c0 .2.5 2.5.6 2.9V81.2l.8-.5-.1-.1h-.1v-.1l-.1-.4 1.3-.8s.3.3.4.3l.1.1v.1c-.1-.1-.2-.1-.1 0zm-.9-.9l-.9.5-.3-1.4 1.2.9zm11.3-8.6l.6-.8-.1-.1h-.1-.1c-.1 0-2.8-.9-2.9-.9-.1 0-.2-.1-.2-.1v-.1l-.1-.1-.8 1 .1.1h.1s.1.1.2.3c.1.2 1.3 2.1 1.6 2.5v.2l.1.1.6-.7-.1-.1h-.1l-.1-.1s-.2-.3-.2-.4l.9-1.2.4.1h.1c0 .1 0 .2.1.3-.1-.1-.1-.1 0 0zm-1.2-.6l-.6.8-.8-1.3 1.4.5zM53.7 81.5v-.2c-.1.1-.2.2-.3.2l-.3.3c-.1.1-.1.3-.1.4v.5c0 .2.1.3.2.5.1.1.2.2.4.1.1 0 .2-.1.3-.2.1-.1.1-.2.1-.4s-.1-.3-.2-.4c-.1-.1-.3-.1-.4-.1 0-.2 0-.3.1-.4 0-.2.1-.3.2-.3zm5.2-1.6l-1.2.4v.1h.1s.1 0 .1.1l1 2.8v.1l-.1.1v.1l1.2-.4v-.1h-.1s-.1 0-.1-.1l-1-2.8v-.1s0-.1.1-.2zm9.6-5.5l-1 .8.1.1c.1 0 .1-.1.1-.1s.1 0 .1.1l1.9 2.4v.1l-.1.1.1.1 1-.8-.1-.2c-.1 0-.1.1-.1.1s-.1 0-.1-.1l-1.9-2.3s-.1-.1 0-.1v-.2zm-4.7 6.9l-1.2-2.7v-.1l.1-.1v-.1l-1 .5v.1h.1s.1 0 .1.1l.7 1.4c-.2-.1-1.4-.8-1.5-.8-.1-.1-.1-.1-.2-.1v-.1l.1-.1v-.1l-1.4.6v.1h.1s.1 0 .1.1l1.2 2.7v.1l-.1.1v.1l1-.4v-.1h-.1s-.1 0-.1-.1l-.9-1.9c.3.2 1.3.7 1.5.8.2.1.4.2.5.3.1.1.2.1.2.2v.1l-.1.1v.1l1-.5v-.1c.1-.2 0-.2-.1-.2.1 0 0 0 0 0zm19.6-24l-2.9-.9c-.1 0-.1 0-.1-.1v-.1h-.1l-.3 1.1h.1s0-.1.1-.1h.1l1.5.5c-.2.1-1.5.5-1.6.6H80c-.1 0-.1 0-.1-.1v-.1h-.1l-.5 1.4h.1s0-.1.1-.1h.1l2.9.9c.1 0 .1.1.1.1v.1h.1l.4-1H83s0 .1-.1.1h-.1l-2-.6c.3-.1 1.4-.5 1.6-.6.2-.1.4-.1.6-.2.1 0 .3-.1.3-.1s.1 0 .1.1v.1h.1l.3-1.1h-.1s0 .1-.1.1h-.2zm-6.8 8.2l2.6 1.5c.1 0 .1.1.1.1v.1l.1.1.6-.9-.1-.1s0 .1-.1.1h-.1l-.8-.5.4-.6c.1-.1.1-.3.2-.4 0-.1.1-.3 0-.4 0-.1-.1-.3-.2-.4-.1-.1-.2-.3-.4-.4-.2-.1-.4-.2-.5-.2-.2 0-.3 0-.4.1-.1.1-.2.1-.3.2-.1.1-.2.2-.3.4l-.8 1.4.1.1h.1c-.3-.2-.3-.2-.2-.2zm1.6 0l-.8-.5.3-.6c.1-.1.2-.2.3-.2.1 0 .2 0 .4.1l.3.3c0 .1 0 .2-.1.4l-.4.5zm.3-4.3c-.1.2-.1.4-.1.6 0 .2 0 .4.1.6.1.2.2.4.4.6.2.2.4.3.7.5.3.1.6.2.8.2.2 0 .5-.1.7-.1.2-.1.4-.2.5-.4.1-.2.2-.3.3-.5.1-.2.1-.4.2-.6 0-.2 0-.4-.1-.6l-.3-.6c-.2-.2-.4-.3-.7-.5-.3-.1-.5-.2-.8-.2-.2 0-.5 0-.7.1-.2.1-.4.2-.5.4-.3.2-.4.3-.5.5zm.8.4c.1-.1.1-.2.2-.3.1-.1.2-.1.3-.2.1 0 .2-.1.3-.1.1 0 .3 0 .4.1.1.1.2.1.3.2.1.1.2.2.2.3 0 .1.1.2.1.3s0 .2-.1.3c0 .1-.1.2-.2.3-.1.1-.2.1-.3.2-.1 0-.2.1-.3.1-.1 0-.2 0-.4-.1-.1-.1-.3-.1-.3-.2-.1-.1-.2-.2-.2-.3 0-.1-.1-.2-.1-.3 0-.1.1-.2.1-.3zm-67.4 2.1l2-1-1.6 1.9 2.5-.2-2 1h-.1s-.1 0-.1-.1h-.1l.5.9h.1v-.1s0-.1.1-.1l2.7-1.4h.1s.1 0 .1.1h.1l-.7-1.2h-.1v.2h-.2c-.1 0-1.1.1-1.2.1 0 0 .7-.8.8-.9l.2-.2h.1v.1h.1l-.6-1.3h-.1v.1s0 .1-.1.1l-2.7 1.4h-.1l-.1-.1h-.1l.4.9h.1c-.1 0-.1 0 0-.2-.1.1-.1 0 0 0zm6.2 4.6l-1.4 1.1c-.2.1-.3.3-.4.4-.1.2-.2.3-.2.5v.6c.1.2.2.4.4.6.2.2.3.4.5.5.2.1.4.1.5.1.2 0 .4 0 .5-.1.2-.1.3-.2.5-.3l1.4-1.1h.1s.1 0 .1.1l.1-.1-.7-.9-.1.1v.1s0 .1-.1.1L18 71.2c-.2.1-.3.2-.4.1-.1 0-.3-.1-.4-.3-.1-.2-.2-.3-.2-.4 0-.1.1-.3.2-.4l1.5-1.2s.1-.1.1 0h.1l.1-.1-.8-.9h-.1s0 .1.1.1c0 .1 0 .1-.1.2zm-6.6-15.4l-1.7.4c-.2 0-.4.1-.6.2-.2.1-.3.2-.4.3-.1.1-.2.3-.2.5v.7c.1.3.1.5.3.7.1.2.2.3.4.4.2.1.3.1.5.1h.6l1.7-.4h.1s0 .1.1.1h.1l-.3-1.1H12v.1s0 .1-.1.1l-1.9.4c-.2 0-.3 0-.5-.1-.1-.1-.2-.2-.2-.4v-.5c.1-.1.2-.2.4-.3l1.9-.4h.1v.1h.1l-.2-1.1h-.1v.1c.1 0 .1.1 0 .1zm14.1 25.8l-1.5-1 .5-.6 1 .7v.1s0 .1-.1.1h.1l.6-.8h-.1c0 .1-.1.1-.1.1h-.1l-1-.7.4-.5 1.5 1.1v.1s0 .1-.1.1h.1l.6-.9h-.1c0 .1-.1.1-.1.1h-.1l-2.3-1.7-.1.1.1.1v.1l-1.7 2.4c0 .1-.1.1-.1.1h-.1l-.1.1 2.3 1.6.1.1v.1l.6-.8h-.1l-.1-.1zm5.1 2.9l-1.6-.8.4-.7 1.1.5.1.1v.1h.1l.5-.9h-.1c0 .1-.1.1-.1.1H31l-1.1-.5.3-.6 1.6.8.1.1v.2h.1l.5-.9h-.1c0 .1-.1.1-.1.1h-.1l-2.6-1.3v.1l.1.1v.1l-1.4 2.7c0 .1-.1.1-.1.1h-.1v.1l2.5 1.3s.1 0 .1.1v.1h.1l.5-.9h-.1c-.4-.1-.4-.1-.5-.1zm14.9 4.1h1.3v-.1h-.1l-.1-.1-1-1.9c.1-.1.5-.6.7-.7l.3-.3.2-.2v-.1h-1.3v.1h.1s.1.1 0 .1l-.1.1c0 .1-.1.1-.2.2l-1.1 1.1v-1.5c0-.1 0-.1.1-.1h.1v-.1l-1.2-.1v.1h.1l.1.1-.1 3c0 .1 0 .1-.1.1h-.1v.1l1.2.1v-.1h-.1l-.1-.1v-.6l.6-.7.6 1.2v.1c0 .1 0 .1-.1.1.3.1.3.1.3.2zm-24.2-9.3l1 .8.1-.1V77v-.1l.5-2.1c.1 0 .8-.1 1-.1h.8l.1-.1-1-.8-.1.1s0 .1.1.1v.1h-.4c-.1 0-1.4.2-1.5.2l1-1.1s.1-.1.1 0c0 0 .1 0 .1.1l.1-.1-.9-.8-.1.1s.1 0 .1.1v.1l-2 2.3-.1.1s-.1 0-.1-.1l-.1.1.9.8.1-.1-.1-.1v-.1l.4-.5.9-.1-.3 1.3v.1s-.1.1-.1 0h-.5zm28.5 9.1l1-.1v-.1h-.1l-.1-.1c-.1-.1-1.2-2.7-1.3-2.8-.1-.1-.1-.2-.1-.2s0-.1.1-.1V82l-1.3.1v.1c.1 0 .1 0 .1.1 0 0 0 .1-.1.3-.1.2-.7 2.4-.8 2.8v.1h-.1v.1h.9v-.1H48v-.1-.1l.1-.4 1.5-.1.2.4v.2c.1 0 .1 0 .1.1zm-.4-1.2l-1 .1.4-1.4.6 1.3zM14.7 69l.6.9.1-.1v-.1-.1c.1-.1 1.7-2.4 1.8-2.5.1-.1.1-.2.1-.2h.1l.1-.1-.7-1.1-.1.1v.1s-.1 0-.3.1c-.2.1-2.5.6-2.8.7h-.1l-.1-.1-.1.1.5.8.1-.1v-.1h.1l.4-.1.8 1.2s-.2.3-.3.4c0 0 0 .1-.1.1h-.1c.1.1.1.1 0 .1zm.9-.9l-.6-.9 1.4-.3-.8 1.2zm-5.7-8.5l.3 1h.1v-.1-.1c.1-.1 2.3-1.8 2.4-1.9.1-.1.2-.1.2-.1s.1 0 .1.1h.1l-.4-1.3h-.1v.1h-.3c-.2 0-2.5-.1-2.9-.1h-.1v-.1h-.1l.3.9h.1l.1-.1h.6l.5 1.4s-.3.2-.4.3c0 0-.1 0-.1.1h-.1c-.2-.1-.2-.1-.3-.1zM11 59l-.3-1 1.5.1-1.2.9zm22.7 24.5l1 .3v-.1h-.1v-.1-3.1-.2s0-.1.1 0v-.1l-1.2-.5v.1s.1.1 0 .1c0 0-.1.1-.2.3-.1.2-1.6 1.9-1.9 2.2h-.1-.1v.1l.9.4v-.1-.1l.1-.1.3-.3 1.4.5v.6c-.1 0-.1 0-.2.1 0-.1 0-.1 0 0zm.1-1.3l-1-.4 1-1.1v1.5zm5.5-.8h-.6c-.2 0-.4.1-.6.2-.2.1-.4.3-.5.5-.1.2-.3.5-.3.8-.1.3-.1.6 0 .8.1.2.1.4.3.6.1.2.3.3.5.4.2.1.4.2.6.2.2 0 .4.1.6 0 .2 0 .4-.1.6-.2.2-.1.4-.3.5-.5.1-.2.2-.5.3-.8.1-.3.1-.6 0-.8 0-.3-.1-.5-.3-.6-.1-.2-.3-.3-.5-.4-.2 0-.4-.1-.6-.2zm-.1.9c.1 0 .2.1.3.1.1.1.2.1.2.2.1.1.1.2.1.3v.4c0 .1-.1.3-.1.4-.1.1-.1.2-.2.3-.1.1-.2.1-.3.1h-.4c-.1 0-.2-.1-.3-.1-.1-.1-.2-.1-.2-.2-.1-.1-.1-.2-.1-.3v-.4c0-.1.1-.3.1-.4.1-.1.1-.2.2-.3.1-.1.2-.1.3-.1.1-.1.3-.1.4 0zm41.6-28.1v.6c0 .2.1.4.2.6.1.2.3.4.5.5.2.1.5.2.8.3.3.1.6.1.8 0 .2-.1.5-.1.6-.3.2-.1.3-.3.4-.5.1-.2.2-.4.2-.6v-.6c0-.2-.1-.4-.2-.6-.1-.2-.3-.3-.5-.5s-.5-.2-.8-.3c-.3-.1-.6-.1-.8 0-.2.1-.4.1-.6.3-.2.1-.3.3-.4.5-.1.2-.2.4-.2.6zm.8.2c0-.1.1-.2.1-.3.1-.1.1-.2.2-.2.1-.1.2-.1.3-.1h.4c.1 0 .3.1.4.1.1.1.2.1.3.2.1.1.1.2.1.3v.3c0 .1-.1.2-.1.3-.1.1-.1.2-.2.2-.1.1-.2.1-.3.1h-.4c-.1 0-.3-.1-.4-.1-.1-.1-.2-.1-.3-.2-.1-.1-.1-.2-.1-.3v-.3zm-46.4-4l1.5.6-.2-.6-1.5-.7.2.7zm4.4 4.4c-.3-.1-.5-.2-.6-.3l-.2-1.1c-.1-.6-.3-1.5-.3-1.6l-.7-.3c0 .1.2 1.2.3 1.3l.1.6c0 .1.2 1.2.2 1.4.2.1 1.2.6 1.3.6l-.1-.6zm3.9 2.2c.1-.2.4-1.6.5-1.8.1.2.5 1.1.7 1.7.2-.4.8-1.5.9-1.7 0 .1.5 1.6.6 2l.6-.3c-.1-.4-.8-2.5-1-3.1-.1.3-.8 1.6-.9 1.9-.1-.2-.7-1.6-.9-2-.1.4-.8 2.8-.9 3l.4.3zm4.2.1c.1-.2.3-.8.3-.8l1.2-.1c0 .1.2.6.3.8l.6-.4c-.2-.4-1.1-2.3-1.4-3-.2.5-1.3 2.9-1.4 3.2l.4.3zm.5-1.3c.1-.2.3-.8.4-1 0 .1.3.8.4 1h-.8zm3.6-.4c-.3.1-.7.3-.8.3l.2-1c.1-.6.2-1.5.3-1.6l-.6.2c0 .1-.2 1.2-.2 1.3l-.1.6c0 .1-.2 1.1-.2 1.4.2-.1 1.3-.5 1.3-.5l.1-.7zm3.8-.8c.1-.2.9-2 1-2.2 0 .2.1 1 .2 1.5.3-.5 1.1-1.9 1.2-2.1v1.9l.6-.5c0-.3 0-2.4-.1-2.9-.2.4-1.1 2-1.3 2.4 0-.2-.2-1.4-.2-1.8-.2.5-1.7 3.6-1.8 3.8l.4-.1zm3.6-1.5c.1-.2.5-.9.6-1l1.1-.5v.8l.7-.7c0-.3-.2-2.1-.3-2.8-.4.6-2.2 3.5-2.4 4l.3.2zm1-1.7c.1-.2.6-1 .7-1.2v.9l-.7.3zm-7.6 4.4c.1-.2.4-.9.4-1l1.1-.5c0 .1.2.6.2.8l.6-.6c-.1-.3-.6-2-.8-2.6-.3.6-1.7 3.3-1.9 3.7l.4.2zm.7-1.6c.1-.2.4-1 .5-1.2 0 .1.2.7.2.8l-.7.4zm-18.2-.8c-.1-.2-1.7-3.3-2-3.8 0 .4-.1 1.6-.1 1.8-.2-.3-1.2-2.1-1.5-2.4 0 .5.1 2.7.1 3l.6.6c0-.4-.1-1.8-.1-1.9.1.2 1 1.6 1.3 2.1 0-.5.1-1.3.1-1.5.1.3 1 2.1 1.1 2.3l.5-.2zm2.9 1c-.2-.4-1.7-2.9-2-3.4-.2.6-.5 2.2-.6 2.5l.6.6c0-.2.1-.7.1-.7l1.1.4c.1.1.4.7.5.9l.3-.3zm-1.9-1.5c0-.2.1-.7.1-.8.1.2.5.9.6 1.1l-.7-.3zm6.6 3.6c-.2-.4-1.5-3.2-1.8-3.8-.2.6-.7 2.3-.8 2.6l.6.6c.1-.2.2-.7.2-.8l1.1.5c0 .1.3.8.4 1l.3-.1zm-1.8-1.7c0-.2.2-.7.2-.8.1.2.4 1 .5 1.2l-.7-.4zm1.7 10h-6.7c-.3-1.1-.6-2.2-.8-3.3l-.8-.3c.3 1.3.6 2.5.9 3.7h-9c-2.7-5-4.4-10.9-4.4-17.4h5.6l-.4-.9h-5.3c.1-6.5 1.7-12.5 4.5-17.4h9c-.4 1.4-.8 2.9-1.1 4.5 0 0 .2.1.4.1l.3.1c.3-1.7.7-3.2 1.1-4.7h4c.1-.3.4-.7.4-.7h-4.2c1.9-6.1 4.6-10.4 7.8-12h-.5c-.2 0-1.1.1-1.1.1-2.1 1.5-4 4.2-5.5 7.9-.5 1.2-1 2.5-1.4 3.9h-8.8c3.1-5.2 7.5-9.2 12.5-11.2h-.2c-.3.1-1.1.3-1.1.3-1.1.3-2.8 1-2.8 1-3.6 2.3-6.8 5.7-9.2 9.9h-3.7l-.5.7h3.8c-2.7 5-4.3 11-4.4 17.4h-5.1v.7H21c0 6.4 1.6 12.4 4.3 17.4h-3.7l.5.7h3.6c2.3 4 5.3 7.4 8.9 9.7 0 0 1.3.5 1.8.7 0 0 1.1.4 1.7.5.2.1.5.1.5.1-4.9-2.1-9.1-6-12.1-11.1h8.8c.4 1.4.9 2.7 1.4 4 1.5 3.6 3.4 6.3 5.4 7.8 0 0 .6.1 1.1.1h.4c-3.1-1.6-5.8-6-7.6-12h8.1l-1.5-.3zM77 47.3zm0 0v-.7h-5c-.1-6.4-1.7-12.4-4.4-17.4h3.7l-.5-.7h-3.5c-2.3-4.1-5.4-7.4-9-9.7l-.4-.2c-.1-.1-1.1-.4-1.1-.4-1-.4-2.7-.8-2.7-.8 5 2 9.3 6 12.4 11.2h-8.8c-.4-1.4-.9-2.7-1.4-3.9-1.6-3.7-3.4-6.4-5.5-7.9 0 0-.3-.1-.5-.1s-1.1-.1-1.1-.1c3.2 1.6 5.9 6 7.8 12h-1.3s.1.3.2.7h1.4c.4 1.5.8 3 1.1 4.7 0 0 .3-.1.5-.2h.1c-.3-1.5-.7-3-1.1-4.5h9c2.7 5 4.4 10.9 4.5 17.4h-5.3l-.3.7h5.6c-.1 6.5-1.7 12.5-4.4 17.4h-9c.3-1.2.6-2.4.9-3.7l-.8.4c-.3 1.2-.5 2.3-.8 3.4h-6.7l-1.6.7h8.1c-1.8 6-4.5 10.3-7.6 12 0 0 .8-.1 1-.1.2 0 .6-.1.6-.1 2-1.6 3.8-4.2 5.4-7.8.5-1.2 1-2.6 1.4-4h8.8c-3 5-7.1 8.9-11.9 11 0 0 1.3-.4 2.1-.7 0 0 1.3-.5 1.6-.6l.3-.1c3.4-2.3 6.4-5.6 8.7-9.6H71c.1-.1.5-.7.5-.7h-3.6c2.7-5 4.3-11 4.3-17.4H77zM62 41l1.6-4.1c-2.1.4-6.4 2.4-13 9.1L62 41zm-3.1-6c-.8.2-3.9 1.8-8 8.9 1.7-1.7 4.9-4.5 6.8-5.7l1.2-3.2zm-18.2 3.6c.6 1.4 2.6 3.3 5.8 3.3 3.2 0 5.1-1.9 5.8-3.3H40.7zm12.2-1.9H40c-.3 0-.5.2-.5.5s.2.5.5.5h12.9c.3 0 .5-.2.5-.5.1-.2-.2-.5-.5-.5zm-10.4 9.2c-6.6-6.6-11-8.7-13-9.1L31 41l11.5 4.9zm-7.3-7.7c1.9 1.2 5.1 4 6.8 5.7-4.1-7.1-7.1-8.7-8-8.9l1.2 3.2zm13.9 9.5l.5-5.6c-.7.3-1.6.6-2.5.6l-.5 9.3c0 .1-.1.1-.1.1-.1 0-.1-.1-.1-.1l-.5-9.3c-1-.1-1.8-.3-2.5-.6l.5 5.6L26 40.3c.5 1.4 7.1 18.7 7.2 18.9l11.4 5 .3-4.4s0-.1.1-.1c0 0 .1 0 .1.1l.4 4.8.4 4.6c0 .4.4.7.8.7s.8-.3.8-.7l.4-4.6.4-4.8s0-.1.1-.1c0 0 .1 0 .1.1l.3 4.4 11.4-5c.1-.3 6.6-17.5 7.2-18.9l-18.3 7.4zm2.3-15.2c.1-.4.1-.7.1-.9 0-.6-.2-1-.4-1.5-.1-.4-.3-.8-.4-1.2-.1-.6-.2-1.2-.2-1.8v-.4c-.3.2-.6.3-.9.5-2.6 1.4-6.2 3.4-6.2 8.4v.4h5.3c.3-.2 2.3-1.9 2.7-3.5zm2-6.2c-.7-1.7.1-3.9.1-3.9-3.6.9-4.3 3-5.4 3.2-.8.2-.6-1.9-.6-1.9s-5.1 2.6-6.9 6.7c-1.4 3.6 0 5.6 0 5.6h1.9c-.2-5.9 4-8.2 6.7-9.7.6-.3 1.2-.7 1.7-1l1-.7-.2 1.2s-.2 1.4.1 2.8c.1.4.2.8.4 1.1.3.8.7 1.7.3 3.1C52 34 51 35.2 50.3 36h1.3s1.4-.6 2.5-3.1c1.1-3.2 0-4.5-.7-6.6zM41.7 73.2c.1 0 .1 0 0 0l.1-.1h.1s.1 0 .2-.1v1.6H42v.1h1v-.1h-.1V72.3v-.1h.1v-.1h-1v.1h.1V72.5H42h-.1-.1-.1v-.1h-.1v.8zm2.3.7l-.4.6h.1l.1-.1h.1s.1 0 .2.1h.6c.2 0 .4 0 .5-.1.2-.1.3-.1.5-.2.1-.1.2-.2.3-.4.1-.2.1-.3.1-.6s0-.4-.1-.5c-.1-.2-.1-.3-.3-.4-.1-.1-.3-.2-.4-.2-.2 0-.3-.1-.5-.1h-.4c-.1 0-.2.1-.4.1l-.3.3c-.1.1-.1.2-.1.4 0 .1 0 .2.1.3.1.1.1.2.2.3.1.1.2.1.3.2.1 0 .2.1.4.1s.3 0 .4-.1c.1 0 .3-.1.5-.2 0 .1 0 .2-.1.3 0 .1-.1.2-.2.2-.1.1-.2.1-.2.1h-.7c-.1 0-.1 0-.1-.1-.2.2-.2.1-.2 0zm.8-1.3h.2c.1 0 .1 0 .2.1.1 0 .1.1.1.1s.1.1.1.2 0 .1-.1.2c0 .1-.1.1-.1.1-.1 0-.1 0-.2.1h-.2-.2c-.1 0-.1 0-.2-.1-.1 0-.1-.1-.1-.1s-.1-.1-.1-.2 0-.1.1-.2l.1-.1s.1-.1.2-.1h.2zm3.1-.4c-.2 0-.3 0-.5.1s-.3.2-.4.3c-.1.1-.2.2-.3.4-.1.2-.1.3-.1.5s0 .4.1.5c.1.2.2.3.3.4.1.1.3.2.4.3.2.1.3.1.5.1s.3 0 .5-.1.3-.1.4-.3c.1-.1.2-.2.3-.4.1-.2.1-.3.1-.5s0-.3-.1-.5-.2-.3-.3-.4c-.1-.1-.3-.2-.4-.3-.2-.1-.4-.1-.5-.1zm0 .6c.1 0 .2 0 .3.1.1 0 .1.1.2.2 0 .1.1.1.1.2v.6c0 .1-.1.2-.1.2l-.2.2c-.1 0-.2.1-.3.1-.1 0-.2 0-.3-.1-.1 0-.1-.1-.2-.2 0-.1-.1-.1-.1-.2v-.3-.3c0-.1.1-.2.1-.2 0-.1.1-.1.2-.2s.2-.1.3-.1zm1.8-.1h1.5l-1 1.8s0 .1-.1.1H50v.1h1v-.1h-.1v-.1-.1s0-.1.1-.1l.9-1.7V72h-.1v.1h-2.2-.1V72h-.1v.8h.1c.1 0 .1-.1.2-.1z"/>
  <path d="M106.3 22.4v-5.2c0-.8-.2-1.2-1-1.4-.2 0-.6-.1-.8-.1-.1 0-.2 0-.2-.1s.1-.2.4-.2c1.1 0 2.6.1 2.8.1.2 0 1.7-.1 2.4-.1.3 0 .4 0 .4.2 0 .1-.1.1-.2.1-.2 0-.3 0-.6.1-.7.1-.8.5-.9 1.4v8.6c0 3.5.8 5 1.8 6 1.2 1.1 2.3 1.3 3.7 1.3 1.5 0 2.9-.7 3.8-1.7 1.1-1.4 1.4-3.4 1.4-5.9v-3-5.2c0-.8-.2-1.2-1-1.4-.2 0-.6-.1-.8-.1-.1 0-.2 0-.2-.1s.1-.2.4-.2c1.1 0 2.4.1 2.6.1.2 0 1.3-.1 2-.1.3 0 .4 0 .4.2 0 .1-.1.1-.2.1-.2 0-.3 0-.6.1-.7.1-.8.5-.9 1.4V25c0 2.6-.3 5.5-2.2 7.2-1.7 1.5-3.6 1.8-5 1.8-.8 0-3.3-.1-5-1.7-1.2-1.1-2.1-2.8-2.1-6.4v-3.5zM126.6 30.9c0 1.7.2 2.2.8 2.3.4.1.9.1 1.1.1.1 0 .2.1.2.2s-.1.2-.4.2c-1.2 0-2.1-.1-2.2-.1-.2 0-1.1.1-2.1.1-.2 0-.3 0-.3-.2 0-.1.1-.2.2-.2.2 0 .6 0 .9-.1.5-.1.6-.7.6-2.6V18.9c0-.8.1-1 .3-1 .2 0 .6.4.8.6.3.3 3.4 3.6 6.7 7 2.1 2.2 4.4 4.6 5 5.3l-.2-10.3c0-1.3-.1-1.8-.8-1.9-.4-.1-.9-.1-1-.1-.1 0-.2-.1-.2-.2s.2-.1.4-.1h4c.2 0 .4 0 .4.1s-.1.2-.2.2h-.5c-.7.1-.8.6-.8 1.8v12c0 1.4 0 1.5-.2 1.5s-.4-.2-1.6-1.3c-.2-.2-3.3-3.2-5.5-5.6-2.5-2.6-4.9-5.1-5.5-5.8l.1 9.8zM147.7 27.7c0 2 0 3.6.1 4.4.1.6.1 1 .8 1.1.3 0 .8.1 1 .1.1 0 .2.1.2.2s-.1.2-.3.2c-1.2 0-2.6-.1-2.7-.1-.1 0-1.5.1-2.1.1-.2 0-.3 0-.3-.2 0-.1 0-.2.2-.2s.5 0 .7-.1c.4-.1.5-.5.6-1.1.1-.8.1-2.5.1-4.4v-3.6-4.4c0-.7-.2-1-.7-1.1-.2 0-.5-.1-.7-.1-.1 0-.2-.1-.2-.2s.1-.2.3-.2H149c.2 0 .3 0 .3.2 0 .1-.1.2-.2.2h-.5c-.6.1-.7.4-.8 1.1V27.7zM160.6 31c1.2-2.8 4-9.8 4.5-11.2.1-.3.2-.6.2-.8 0-.2-.1-.4-.3-.4-.2-.1-.5-.1-.7-.1-.1 0-.2-.1-.2-.2s.1-.2.5-.2h3.8c.2 0 .3 0 .3.1s-.1.2-.2.2-.6 0-1 .2c-.3.2-.6.5-1.2 1.9-.2.6-1.3 3-2.4 5.6-1.3 3-2.2 5.2-2.7 6.2-.6 1.2-.7 1.5-.9 1.5-.2 0-.4-.3-.8-1.3l-5.2-12.6c-.5-1.2-.8-1.4-1.5-1.5-.3-.1-.7-.1-.8-.1-.1 0-.2-.1-.2-.2s.2-.1.6-.1h4.5c.4 0 .6 0 .6.1s-.1.2-.2.2c-.2 0-.6 0-.8.1-.2.1-.2.2-.2.4 0 .3.3.9.6 1.7l3.7 10.5zM172.3 24.1v-4.4c0-.7-.2-1-.9-1.1h-.7c-.1 0-.2-.1-.2-.2s.1-.2.3-.2h7.6c.4 0 .8-.1 1-.1.1 0 .2-.1.3-.1.1 0 .1.1.1.2s-.1.4-.2 1c0 .2-.1 1.1-.1 1.4 0 .1-.1.2-.2.2s-.2-.1-.2-.3c0-.1 0-.5-.1-.7-.1-.3-.4-.5-1.5-.6-.4 0-2.8-.1-3.1-.1-.1 0-.1.1-.1.2v5.6c0 .1 0 .2.1.2h3.6c.5 0 .8-.1 1-.3.1-.1.2-.3.3-.3.1 0 .1 0 .1.2 0 .1-.1.5-.2 1.1 0 .4-.1 1.2-.1 1.3 0 .2 0 .4-.2.4-.1 0-.1-.1-.1-.2 0-.2 0-.4-.1-.7-.1-.3-.3-.5-1.1-.6-.6-.1-2.9-.1-3.2-.1-.1 0-.1.1-.1.1v5.2c.1 1.4.4 1.6 2.5 1.6.6 0 1.6 0 2.1-.2.6-.2.8-.6 1-1.4 0-.2.1-.3.2-.3s.1.2.1.3c0 .1-.2 1.5-.3 2-.1.5-.4.5-1.2.5-1.6 0-2.8 0-3.7-.1h-1.8-2.1c-.2 0-.3 0-.3-.2 0-.1.1-.2.2-.2.2 0 .5-.1.7-.1.4-.1.5-.5.6-1.1.1-.8.1-2.5.1-4.4v-3.5zM184.8 24.1v-4.4c0-.7-.2-1-.9-1.1h-.7c-.1 0-.2-.1-.2-.2s.1-.2.3-.2h5.2c1.4 0 2.9.1 4 .9.5.4 1.5 1.4 1.5 2.8 0 1.5-.6 3-2.6 4.7 1.7 2.2 3.2 4 4.4 5.3 1.1 1.2 1.8 1.4 2.4 1.4.4.1.6.1.8.1.1 0 .2.1.2.2s-.1.2-.5.2h-1.3c-1.2 0-1.7-.1-2.3-.4-.9-.5-1.7-1.5-2.9-3-.9-1.1-1.8-2.4-2.3-3-.1-.1-.1-.1-.3-.1h-2.7c-.1 0-.1 0-.1.2v.5c0 2 0 3.6.1 4.4.1.6.2 1 .8 1.1.3 0 .8.1.9.1.1 0 .2.1.2.2s-.1.2-.3.2c-1.2 0-2.5-.1-2.6-.1 0 0-1.4.1-2.1.1-.2 0-.3 0-.3-.2 0-.1 0-.2.2-.2s.5 0 .7-.1c.4-.1.5-.5.6-1.1.1-.8.1-2.5.1-4.4v-3.9zm1.8 1.7c0 .1 0 .2.1.3.3.2 1.4.3 2.3.3.5 0 1.1 0 1.6-.4.7-.5 1.3-1.6 1.3-3.1 0-2.6-1.4-4-3.7-4-.6 0-1.3.1-1.5.1-.1 0-.2.1-.2.2v6.6zM199.9 33.4c-.3-.1-.3-.2-.3-.8 0-1 .1-1.8.1-2.2 0-.2 0-.3.2-.3.1 0 .2.1.2.2 0 .2 0 .5.1.8.3 1.5 1.9 2 3.4 2 2.1 0 3.2-1.2 3.2-2.7 0-1.5-.8-2.2-2.7-3.6l-1-.7c-2.3-1.7-3-3-3-4.4 0-2.4 1.9-3.9 4.7-3.9.8 0 1.7.1 2.2.2.4.1.6.1.8.1.2 0 .2 0 .2.1s-.1.8-.1 2.2c0 .3 0 .5-.2.5-.1 0-.2-.1-.2-.3 0-.2-.2-.8-.3-1-.1-.2-.8-1-2.8-1-1.5 0-2.8.8-2.8 2.2 0 1.3.7 2.1 2.8 3.5l.6.4c2.6 1.8 3.5 3.2 3.5 5 0 1.2-.5 2.5-2 3.5-.9.6-2.2.7-3.4.7-1.1.1-2.4-.1-3.2-.5zM215.1 27.7c0 2 0 3.6.1 4.4.1.6.1 1 .8 1.1.3 0 .8.1 1 .1.1 0 .2.1.2.2s-.1.2-.3.2c-1.2 0-2.6-.1-2.7-.1-.1 0-1.5.1-2.1.1-.2 0-.3 0-.3-.2 0-.1.1-.2.2-.2.2 0 .5 0 .7-.1.4-.1.5-.5.6-1.1.1-.8.1-2.5.1-4.4v-3.6-4.4c0-.7-.2-1-.7-1.1-.2 0-.5-.1-.7-.1-.1 0-.2-.1-.2-.2s.1-.2.3-.2H216.4c.2 0 .3 0 .3.2 0 .1-.1.2-.2.2h-.5c-.6.1-.7.4-.7 1.1V27.7zM227.4 27.7c0 2 0 3.6.1 4.4.1.6.2 1 .8 1.1.3 0 .8.1 1 .1.1 0 .2.1.2.2s-.1.2-.3.2c-1.2 0-2.5-.1-2.6-.1-.1 0-1.6.1-2.2.1-.2 0-.3 0-.3-.2 0-.1 0-.1.2-.1s.4 0 .6-.1c.4-.1.6-.5.6-1.1.1-.8.1-2.5.1-4.4v-8.6h-3.1c-1.3 0-1.8.2-2.2.7-.2.4-.3.5-.3.7-.1.2-.1.2-.2.2 0 0-.1 0-.1-.2s.4-2.1.5-2.2c0-.1.1-.4.2-.4s.4.2.9.2c.6.1 1.4.1 1.7.1h8c.7 0 1.2 0 1.5-.1.3 0 .5-.1.6-.1s.1.1.1.2c0 .6-.1 2.1-.1 2.3 0 .2-.1.3-.2.3s-.1-.1-.2-.4v-.2c-.1-.6-.5-1.1-2.6-1.1h-2.7v8.5zM241.7 28.3c0-1.1-.1-1.5-.5-2.1-.2-.3-3-4.9-3.8-6-.5-.8-1-1.2-1.4-1.5-.3-.2-.7-.3-.9-.3-.1 0-.2-.1-.2-.2s.1-.1.3-.1H239.1c.2 0 .3 0 .3.1s-.1.1-.3.2c-.2.1-.3.2-.3.3 0 .3.1.5.3.8L243 26c.4-.9 3.1-5.3 3.5-6 .3-.5.4-.8.4-1.1 0-.3-.1-.5-.3-.5-.2 0-.3-.1-.3-.2s.1-.1.3-.1h3.6c.1 0 .3 0 .3.1s-.1.2-.3.2c-.2 0-.7.1-1 .3-.4.2-.6.5-1.1 1-.7.8-3.7 5.7-4.1 6.5-.4.7-.3 1.4-.3 2.1v1.8c0 .3 0 1.2.1 2.1 0 .6.2 1 .8 1.1.3 0 .8.1 1 .1.1 0 .2.1.2.2s-.1.2-.3.2c-1.2 0-2.6-.1-2.7-.1-.1 0-1.5.1-2.1.1-.2 0-.3 0-.3-.2 0-.1 0-.2.2-.2s.4 0 .6-.1c.4-.1.6-.5.6-1.1V28.3zM111.2 53.6c0-4.5 3-7.5 6.4-7.5 3.3 0 5.1 1.9 5.1 5 0 3.5-2.5 7.4-6.7 7.3-3.1-.1-4.8-2.2-4.8-4.8zm1.9.4c0 2.1.9 3.6 3.1 3.6 3.2 0 4.5-4.6 4.5-7.2 0-1.9-1-3.6-3-3.6-3.3 0-4.6 4.5-4.6 7.2zM132.7 46.8l-.1.8h-3.1l-1.1 5.8c-.3 1.7-.7 3.2-1.5 4.9-1.2 2.6-2.6 4.4-2.8 4.4-.6-.4-.6-.5-.3-.9 1.4-1.5 2.1-3.6 2.4-5.6l1.5-8.7h-2.4l.1-.8h2.4c.8-4.8 3.2-7.8 4.8-7.8.5 0 .9.4.8 1.1 0 .9-.5 1.4-.8 1.4-.5 0-.1-.8-1-.8-1.4 0-1.6 2.7-2.2 6.1h3.3zM160.2 50.9c0 2.3 0 4.2.1 5.2.1.7.2 1.2.9 1.3.3 0 .9.1 1.1.1.1 0 .2.1.2.1 0 .1-.1.2-.4.2-1.3 0-2.9-.1-3-.1-.1 0-1.6.1-2.4.1-.3 0-.4 0-.4-.2 0-.1 0-.1.2-.1s.5 0 .7-.1c.5-.1.6-.6.7-1.3.1-1 .1-2.9.1-5.2v-2.5c0-.1-.1-.1-.1-.1h-10.3c-.1 0-.1 0-.1.1v2.5c0 2.3 0 4.2.1 5.2.1.7.2 1.2.9 1.3.3 0 .9.1 1.1.1.1 0 .2.1.2.1 0 .1-.1.2-.4.2-1.3 0-2.9-.1-3-.1-.1 0-1.6.1-2.4.1-.3 0-.4 0-.4-.2 0-.1 0-.1.2-.1s.5 0 .7-.1c.5-.1.6-.6.7-1.3.1-1 .1-2.9.1-5.2v-4.3-5.2c0-.8-.2-1.2-1-1.4-.2 0-.6-.1-.8-.1-.1 0-.2 0-.2-.1s.1-.2.4-.2c1.1 0 2.6.1 2.7.1.1 0 1.6-.1 2.4-.1.3 0 .4 0 .4.2 0 .1-.1.1-.2.1-.2 0-.3 0-.6.1-.7.1-.8.5-.9 1.4v5.7c0 .1.1.1.1.1H158c.1 0 .1 0 .1-.1v-.5c0-3.8 0-4.5-.1-5.2 0-.8-.2-1.2-1-1.4-.2 0-.6-.1-.8-.1-.1 0-.2 0-.2-.1s.1-.2.4-.2c1.1 0 2.6.1 2.7.1.1 0 1.6-.1 2.4-.1.3 0 .4 0 .4.2 0 .1-.1.1-.2.1-.2 0-.3 0-.6.1-.7.1-.8.5-.9 1.4v9.5zM171.8 42.7c.3-.7.4-.8.5-.8.2 0 .3.3.5.8.4.9 3.8 9.4 5.1 12.5.8 1.8 1.4 2.1 1.8 2.2.3.1.6.1.8.1.1 0 .3 0 .3.2 0 .1-.2.2-.5.2h-3.4c-.4 0-.8 0-.8-.1s0-.1.1-.1.3-.2.2-.6l-1.9-4.7c0-.1-.1-.1-.2-.1h-4.9c-.1 0-.2 0-.2.2l-1.2 3.3c-.2.5-.3 1-.3 1.4 0 .4.4.6.7.6h.2c.2 0 .2.1.2.2s-.1.2-.3.2c-.5 0-1.7-.1-1.9-.1-.2 0-1.3.1-2.2.1-.3 0-.4 0-.4-.2 0-.1.1-.2.2-.2h.6c1-.1 1.4-.8 1.8-1.9l5.2-13.2zm2.3 8.6c.1 0 .1 0 .1-.1l-2.1-5.6c-.1-.3-.2-.3-.4 0l-2 5.6c0 .1 0 .1.1.1h4.3zM196.5 54.8c.6-1.7 2.5-7.6 3.3-10.3.2-.8.2-1 .2-1.3 0-.4-.2-.6-1.1-.6-.1 0-.2-.1-.2-.2s.1-.1.4-.1H203c.2 0 .3 0 .3.1s0 .2-.2.2c-.1 0-.5 0-.7.1-.6.2-1 1-1.4 2.2-.9 2.6-3 9.1-3.9 11.4-.6 1.5-.7 1.8-.9 1.8-.2 0-.4-.3-.7-1.1l-4.2-11.2c-.7 1.8-3.6 9.3-4.4 11.2-.4.9-.5 1.1-.7 1.1-.2 0-.4-.2-.8-1.6l-3.8-12.2c-.3-1.1-.6-1.4-1.1-1.5-.3-.1-.8-.1-1-.1-.1 0-.2-.1-.2-.2s.1-.1.3-.1h4.7c.3 0 .4 0 .4.1s-.1.2-.2.2c-.2 0-.5 0-.7.1-.1 0-.3.2-.3.4s.2 1 .4 1.9c.3 1.3 2.5 8.9 2.8 9.7l4.4-11.5c.3-.8.5-.9.6-.9.1 0 .3.3.6 1l4.2 11.4zM209.1 42.7c.3-.7.4-.8.5-.8.2 0 .3.3.5.8.4.9 3.8 9.4 5.1 12.5.8 1.8 1.4 2.1 1.8 2.2.3.1.6.1.8.1.1 0 .3 0 .3.2 0 .1-.2.2-.5.2h-3.4c-.4 0-.8 0-.8-.1s0-.1.1-.1.3-.2.2-.6l-1.9-4.7c0-.1-.1-.1-.2-.1h-4.9c-.1 0-.2 0-.2.2l-1.2 3.3c-.2.5-.3 1-.3 1.4 0 .4.4.6.7.6h.2c.2 0 .2.1.2.2s-.1.2-.3.2c-.5 0-1.7-.1-1.9-.1-.2 0-1.3.1-2.2.1-.3 0-.4 0-.4-.2 0-.1.1-.2.2-.2h.6c1-.1 1.4-.8 1.8-1.9l5.2-13.2zm2.4 8.6c.1 0 .1 0 .1-.1l-2.1-5.6c-.1-.3-.2-.3-.4 0l-2 5.6c0 .1 0 .1.1.1h4.3zM223.6 51.9c0 2 0 3.6.1 4.5.1.6.1 1 .8 1.1.3 0 .8.1 1 .1.1 0 .2.1.2.2s-.1.2-.3.2c-1.2 0-2.6-.1-2.7-.1-.1 0-1.4.1-2.1.1-.2 0-.3 0-.3-.2 0-.1 0-.2.2-.2s.5 0 .7-.1c.4-.1.5-.5.6-1.1.1-.8.1-2.5.1-4.5v-3.6-4.4c0-.7-.2-1-.7-1.1-.2 0-.5-.1-.7-.1-.1 0-.2-.1-.2-.2s.1-.2.3-.2H224.9c.2 0 .3 0 .3.2 0 .1-.1.2-.2.2h-.5c-.6.1-.7.4-.8 1.1V51.9zM231.2 43.4c.2.2.2.3.2.4 0 .1-.1.1-.2.1-.4 0-1.3-.3-1.7-.4-.3-.1-.4-.3-.4-.6 0-1.7 1.2-3.7 2.1-4.8.1-.1.2-.2.3-.2.1 0 .1 0 .1.1s0 .1-.1.3c-.4.8-.8 2.1-.8 3.5 0 .8.3 1.4.5 1.6zM239 51.9c0 2 0 3.6.1 4.5.1.6.1 1 .8 1.1.3 0 .8.1 1 .1.1 0 .2.1.2.2s-.1.2-.3.2c-1.2 0-2.6-.1-2.7-.1-.1 0-1.4.1-2.1.1-.2 0-.3 0-.3-.2 0-.1 0-.2.2-.2s.5 0 .7-.1c.4-.1.5-.5.6-1.1.1-.8.1-2.5.1-4.5v-3.6-4.4c0-.7-.2-1-.7-1.1-.2 0-.5-.1-.7-.1-.1 0-.2-.1-.2-.2s.1-.2.3-.2H240.3c.2 0 .3 0 .3.2 0 .1-.1.2-.2.2h-.5c-.6.1-.7.4-.8 1.1V51.9zM118.3 75.2c-.2-.7-.4-1.1-.7-1.3-.2-.1-.5-.2-.7-.2-.2 0-.3 0-.3-.2 0-.1.1-.2.4-.2.9 0 1.9.1 2 .1.2 0 .9-.1 2-.1.2 0 .4.1.4.2s-.1.2-.3.2c-.1 0-.3 0-.4.1-.2.1-.2.2-.2.4s.2.8.4 1.6c.3 1.2 1.9 6.5 2.3 7.5h.1l3.4-9.2c.2-.5.3-.6.4-.6.2 0 .3.3.5.8l3.7 8.9h.1c.3-1.2 1.7-5.8 2.3-7.9.1-.4.2-.8.2-1 0-.3-.2-.5-.8-.5-.2 0-.3-.1-.3-.2s.1-.2.4-.2c.9 0 1.7.1 1.8.1.1 0 .9-.1 1.5-.1.2 0 .3 0 .3.1s-.1.2-.2.2c-.2 0-.4 0-.6.1-.4.2-.6.9-1 1.9-.8 2.2-2.7 7.8-3.5 10.5-.2.6-.3.8-.5.8s-.3-.2-.5-.9l-3.7-8.8c-.3.9-2.7 7.1-3.4 8.8-.3.7-.4.9-.6.9-.2 0-.2-.2-.4-.7l-4.1-11.1zM139.3 79.8v-3.2c0-.5-.2-.7-.7-.8-.1 0-.4-.1-.6-.1-.2 0-.3-.1-.3-.2s.1-.1.4-.1h6.4c.3 0 .5-.1.7-.1.1 0 .2-.1.2-.1.1 0 .1.1.1.1 0 .1-.1.3-.1 1 0 .2-.1.8-.1 1 0 .1-.1.2-.2.2s-.1-.1-.1-.2 0-.4-.1-.5c-.1-.3-.2-.5-1-.5-.3 0-2.1-.1-2.4-.1-.1 0-.1.1-.1.1V80c0 .1 0 .2.1.2h2.7c.4 0 .6-.1.7-.2l.2-.2s.1.1.1.2 0 .3-.1 1.1c0 .3-.1.9-.1 1 0 .1 0 .3-.2.3-.1 0-.1-.1-.1-.1 0-.2 0-.4-.1-.5-.1-.3-.3-.5-.9-.6-.3 0-2-.1-2.4-.1-.1 0-.1.1-.1.2V84.7c0 1 .5 1.3 2.1 1.3.4 0 1.1 0 1.5-.2.4-.2.6-.5.7-1.1 0-.2.1-.2.2-.2s.1.2.1.4c0 .3-.1 1.4-.2 1.7-.1.4-.2.4-.8.4-1.2 0-2.1 0-2.9-.1H138.1c-.2 0-.3-.1-.3-.2s.1-.2.2-.2c.2 0 .4 0 .5-.1.3-.1.4-.4.5-.8.1-.6.1-1.8.1-3.2v-2.6zM148.9 86.6c-.2-.1-.3-.2-.3-.5 0-.8.1-1.7.1-2 0-.2.1-.4.2-.4s.2.1.2.2c0 .2.1.5.1.8.3 1.1 1.5 1.5 2.5 1.5 1.3 0 2.2-.8 2.2-1.9 0-.7-.2-1.3-1.5-2.1l-.9-.5c-1.8-1.1-2.4-2.1-2.4-3.4 0-1.8 1.8-3 3.9-3 1 0 1.8.1 2.2.2.1 0 .2.1.2.2 0 .2-.1.6-.1 1.8 0 .3-.1.5-.2.5s-.2-.1-.2-.3c0-.1-.1-.6-.4-1-.2-.3-.7-.7-1.7-.7-1.1 0-2.1.6-2.1 1.6 0 .7.2 1.2 1.6 2l.6.4c2 1.1 2.7 2.3 2.7 3.6 0 1.1-.4 2-1.6 2.8-.7.5-1.8.6-2.6.6-.9 0-1.9-.1-2.5-.4zM161.9 76.4l-2.3.1c-.9 0-1.3.1-1.5.5-.2.2-.2.4-.3.5 0 .1-.1.2-.2.2s-.1-.1-.1-.2c0-.2.3-1.7.3-1.8 0-.2.1-.3.2-.3s.3.1.7.2c.5.1 1 .1 1.6.1h6.3c.5 0 .8 0 1.1-.1.2 0 .4-.1.4-.1.1 0 .1.1.1.3v1.8c0 .2-.1.2-.1.2-.1 0-.2-.1-.2-.3v-.2c0-.4-.4-.8-1.8-.9h-2v6.1c0 1.4 0 2.6.1 3.2.1.4.1.7.6.8.2 0 .6.1.8.1.2 0 .2.1.2.2s-.1.2-.3.2c-1 0-2.1-.1-2.5-.1-.4 0-1.4.1-2 .1-.2 0-.3-.1-.3-.2s.1-.2.2-.2c.2 0 .4 0 .5-.1.3-.1.4-.4.5-.8.1-.6.1-1.8.1-3.2v-6.1zM176.5 80.2c0-3 2-6.9 7.3-6.9 4.4 0 7.1 2.6 7.1 6.6 0 4-2.8 7.2-7.3 7.2-5 0-7.1-3.8-7.1-6.9zm12 .3c0-4-2.3-6.4-5.2-6.4-2 0-4.3 1.1-4.3 5.5 0 3.7 2 6.6 5.4 6.6 1.2 0 4.1-.6 4.1-5.7zM195.1 76.6c.2.2.2.2.2.3 0 .1-.1.1-.2.1-.4 0-1.1-.2-1.5-.3-.4-.1-.5-.2-.5-.5 0-1.1 1.1-3 1.9-3.8.1-.1.2-.1.3-.1.1 0 .1 0 .1.1 0 0 0 .1-.1.2-.3.6-.7 1.7-.7 2.8.1.6.4 1.1.5 1.2zM198.3 83.1c-.1 0-.1 0-.1.1l-.8 2c-.2.4-.2.7-.2.9 0 .3.1.4.6.4h.2c.2 0 .2.1.2.2s-.1.2-.2.2c-.5 0-1.2-.1-1.7-.1-.2 0-1 .1-1.8.1-.2 0-.3 0-.3-.2 0-.1.1-.2.2-.2h.5c.7-.1 1-.6 1.3-1.3l4.1-9.4c.2-.4.3-.6.5-.6s.3.1.5.5c.4.8 3 7 4 9.2.6 1.4 1 1.6 1.3 1.6.2 0 .4.1.6.1.1 0 .2.1.2.2s-.1.2-.7.2h-3c-.3 0-.5 0-.5-.1s0-.1.2-.2c.1 0 .2-.2.1-.3l-1.2-3c0-.1-.1-.1-.2-.1h-3.8zm3.3-.9c.1 0 .1 0 0 0l-1.4-3.9c0-.1 0-.1-.1-.1s-.1.1-.1.1l-1.5 3.8c0 .1 0 .1.1.1h3zM217.4 80.4s.1 0 .1-.1V80v-3.3c0-.5-.2-.7-.7-.8-.1 0-.4-.1-.6-.1-.2 0-.3-.1-.3-.2s.1-.1.3-.1h4.3c.2 0 .3 0 .3.1s-.1.2-.3.2c-.1 0-.3 0-.5.1-.4.1-.5.3-.6.8V82.5c0 1.4 0 2.6.1 3.2.1.4.1.7.6.8.2 0 .5.1.8.1.2 0 .2.1.2.2s-.1.2-.3.2c-1 0-2-.1-2.5-.1-.4 0-1.4.1-2 .1-.2 0-.3-.1-.3-.2s.1-.2.2-.2c.2 0 .4 0 .6-.1.3-.1.4-.4.5-.8.1-.6.1-1.8.1-3.2v-1.1c0-.1-.1-.1-.1-.1h-5.9c-.1 0-.1 0-.1.1v1.1c0 1.4 0 2.5.1 3.2.1.4.1.7.6.8.2 0 .6.1.8.1.2 0 .2.1.2.2s-.1.2-.3.2c-1 0-2.1-.1-2.5-.1-.4 0-1.4.1-2 .1-.2 0-.3-.1-.3-.2s.1-.2.2-.2c.2 0 .4 0 .5-.1.3-.1.4-.4.5-.8.1-.6.1-1.8.1-3.2v-2.6-3.2c0-.5-.2-.7-.7-.8-.1 0-.4-.1-.6-.1-.2 0-.3-.1-.3-.2s.1-.1.3-.1h4.4c.2 0 .3 0 .3.1s-.1.2-.3.2c-.1 0-.3 0-.4.1-.4.1-.5.3-.6.8V80.3c0 .1.1.1.1.1h6zM224.4 79.8v-3.2c0-.5-.2-.7-.7-.8-.1 0-.4-.1-.6-.1-.2 0-.3-.1-.3-.2s.1-.1.3-.1h4.3c.2 0 .3 0 .3.1s-.1.2-.2.2c-.2 0-.3 0-.5.1-.4.1-.5.3-.6.8V81.9c0 2.2.4 3 1.2 3.6.7.5 1.4.6 2 .6.7 0 1.5-.2 2.1-.8.9-.8.9-2.1.9-3.7v-1.9-3.2c0-.5-.2-.7-.7-.8-.1 0-.4-.1-.6-.1-.2 0-.3-.1-.3-.2s.1-.1.3-.1h3.7c.2 0 .3 0 .3.1s-.1.2-.3.2c-.2 0-.3 0-.5.1-.4.1-.5.3-.6.8V81.3c0 1.7-.2 3.4-1.5 4.5-1.1.9-2.3 1.1-3.3 1.1-.8 0-2.4 0-3.5-1-.8-.7-1.4-1.8-1.4-4v-2.1z"/>
  <g>
    <path class="st0" d="M104.6 65.5h144v1.1h-144z"/>
  </g>
  <g>
    <path d="M246.8 42.3c1.2 0 2.1.9 2.1 2.1 0 1.2-.9 2.1-2.1 2.1-1.2 0-2.1-.9-2.1-2.1 0-1.1.9-2.1 2.1-2.1zm-.1.3c-1 0-1.7.8-1.7 1.9 0 1 .8 1.9 1.8 1.9s1.7-.8 1.7-1.9c0-1.1-.8-1.9-1.8-1.9zm-.4 3.1h-.3v-2.4c.2 0 .4-.1.6-.1.3 0 .6.1.7.2.1.1.2.3.2.5 0 .3-.2.5-.5.6.2 0 .3.2.4.6.1.4.1.5.2.6h-.3c-.1-.1-.1-.3-.2-.6s-.2-.4-.5-.4h-.3v1zm0-1.3h.3c.3 0 .6-.1.6-.4 0-.2-.2-.5-.6-.5h-.3v.9z"/>
  </g>
  <g>
    <path class="st0" d="M71.7 85.9v.2h-.9v2.2h-.3v-2.2h-.9v-.2h2.1zm2.6 2.4l-.1-1.7V86c-.1.2-.1.4-.2.6l-.7 1.6H73l-.7-1.6c-.1-.2-.1-.4-.2-.6v.6l-.1 1.7h-.3l.2-2.4h.3l.7 1.6c.1.2.1.3.2.6.1-.2.1-.4.2-.6l.7-1.6h.3l.2 2.4h-.2z"/>
  </g>
</svg>
